<svg width="399" height="292" viewBox="0 0 399 292" fill="none" xmlns="http://www.w3.org/2000/svg">
<g filter="url(#filter0_i)">
<path d="M0.0404421 1.89999C1.14044 5.39999 127.74 290.6 128.54 291.4C129.04 291.9 147.74 259.1 170.24 218.7C192.74 178.2 211.34 145.2 211.64 145.2C211.94 145.2 229.04 177.8 249.64 217.6C270.24 257.5 287.34 290.1 287.64 290.1C287.94 290.1 302.14 264.6 319.24 233.3L350.34 176.6L339.54 154.9C333.54 142.9 328.64 133 328.64 132.7C328.64 132.5 332.54 132.1 337.44 131.9C376.04 129.6 404.84 92.2 397.24 54.1C394.64 41.4 389.04 30.5 380.14 21.3C371.74 12.5 363.54 7.19998 352.14 3.29999L344.14 0.600006L254.04 0.299988L163.94 0L140.34 43C127.24 66.7 116.64 86.4 116.64 86.8C116.64 88.5 134.14 128.1 134.84 127.8C135.24 127.7 146.84 107.3 160.44 82.6L185.34 37.6L260.74 37.3C348.14 37 343.34 36.6 352.64 45.9C359.74 53 362.14 59.3 361.34 68.7C360.44 79.9 351.94 90.9 341.64 94C339.24 94.7 326.14 95.1 303.24 95.1C284.24 95.1 268.64 95.4 268.64 95.8C268.64 96.1 277.64 114.2 288.74 136L308.84 175.6L299.04 193.8C293.54 203.8 288.94 212 288.64 212.1C288.34 212.1 271.24 179.5 250.64 139.6C221.34 83.1 212.94 67.5 212.04 68.6C211.44 69.4 193.44 101.5 172.04 140C150.64 178.5 132.84 209.6 132.44 209.2C132.04 208.9 114.64 170.1 93.8404 123.1L55.9404 37.6L81.9404 37.1L108.04 36.6L115.14 24.1C119.04 17.2 123.64 9 125.54 5.79999L128.74 0.100006H64.1404C2.74044 0.100006 -0.459558 0.199982 0.0404421 1.89999Z" fill="white"/>
</g>
<defs>
<filter id="filter0_i" x="0" y="0" width="398.463" height="295.406" filterUnits="userSpaceOnUse" color-interpolation-filters="sRGB">
<feFlood flood-opacity="0" result="BackgroundImageFix"/>
<feBlend mode="normal" in="SourceGraphic" in2="BackgroundImageFix" result="shape"/>
<feColorMatrix in="SourceAlpha" type="matrix" values="0 0 0 0 0 0 0 0 0 0 0 0 0 0 0 0 0 0 127 0" result="hardAlpha"/>
<feOffset dy="4"/>
<feGaussianBlur stdDeviation="2"/>
<feComposite in2="hardAlpha" operator="arithmetic" k2="-1" k3="1"/>
<feColorMatrix type="matrix" values="0 0 0 0 0 0 0 0 0 0 0 0 0 0 0 0 0 0 0.25 0"/>
<feBlend mode="normal" in2="shape" result="effect1_innerShadow"/>
</filter>
</defs>
</svg>
